M48
;DRILL file {KiCad 4.0.0-rc2-stable} date 12/11/2015 17:26:35
;FORMAT={-:-/ absolute / metric / decimal}
FMAT,2
METRIC,TZ
T1C0.800
T2C1.001
T3C1.016
%
G90
G05
M71
T1
X181.864Y-53.848
X181.864Y-58.928
X186.69Y-64.262
X186.69Y-66.802
X186.69Y-69.342
X186.69Y-71.882
X186.69Y-74.422
X186.69Y-76.962
X186.944Y-53.848
X186.944Y-58.928
X196.596Y-100.33
X199.136Y-100.33
X201.676Y-100.33
X204.216Y-100.33
X205.74Y-52.07
X206.756Y-100.33
X208.28Y-52.07
X209.296Y-100.33
X210.82Y-52.07
X211.836Y-100.33
X213.36Y-52.07
X214.376Y-100.33
X215.9Y-52.07
X216.916Y-100.33
X218.44Y-52.07
X219.456Y-100.33
X220.98Y-52.07
X223.52Y-52.07
X223.52Y-100.33
X226.06Y-100.33
X228.6Y-52.07
X228.6Y-100.33
X231.14Y-52.07
X231.14Y-100.33
X233.68Y-52.07
X233.68Y-100.33
X236.22Y-52.07
X236.22Y-100.33
X238.76Y-52.07
X238.76Y-100.33
X241.3Y-52.07
X241.3Y-100.33
T2
X191.516Y-58.928
X201.676Y-58.928
X235.966Y-71.12
X235.966Y-81.28
X240.284Y-57.404
X240.284Y-66.04
X240.284Y-71.12
X240.284Y-81.28
X242.824Y-57.404
X242.824Y-66.04
T3
X188.214Y-82.804
X188.214Y-94.234
X192.405Y-85.09
X192.405Y-87.63
X192.405Y-90.17
X196.215Y-85.09
X196.215Y-87.63
X196.215Y-90.17
X199.39Y-85.09
X199.39Y-87.63
X199.39Y-90.17
X203.2Y-85.09
X203.2Y-87.63
X203.2Y-90.17
X207.01Y-85.09
X207.01Y-87.63
X207.01Y-90.17
X210.82Y-85.09
X210.82Y-87.63
X210.82Y-90.17
X215.265Y-85.09
X215.265Y-87.63
X215.265Y-90.17
X219.075Y-85.09
X219.075Y-87.63
X219.075Y-90.17
X220.98Y-64.516
X221.234Y-79.248
X222.885Y-85.09
X222.885Y-87.63
X222.885Y-90.17
X226.695Y-85.09
X226.695Y-87.63
X226.695Y-90.17
X229.87Y-85.09
X229.87Y-87.63
X229.87Y-90.17
X233.045Y-85.09
X233.045Y-87.63
X233.045Y-90.17
X237.744Y-90.17
X237.744Y-92.71
X241.3Y-90.17
X241.3Y-92.71
T0
M30
